HIERARCHY
ROOT Hips
{
	OFFSET 0.000000 0.000000 0.000000
	CHANNELS 6 Xposition Yposition Zposition Zrotation Yrotation Xrotation 
	JOINT LHipJoint
	{
		OFFSET 0.000000 0.000000 0.000000
		CHANNELS 3 Zrotation Yrotation Xrotation
		JOINT LeftUpLeg
		{
			OFFSET 1.363060 -1.794630 0.839290
			CHANNELS 3 Zrotation Yrotation Xrotation
			JOINT LeftLeg
			{
				OFFSET 2.448110 -6.726130 0.000000
				CHANNELS 3 Zrotation Yrotation Xrotation
				JOINT LeftFoot
				{
					OFFSET 2.562200 -7.039590 0.000000
					CHANNELS 3 Zrotation Yrotation Xrotation
					JOINT LeftToeBase
					{
						OFFSET 0.157640 -0.433110 2.322550
						CHANNELS 3 Zrotation Yrotation Xrotation
						End Site
						{
							OFFSET 0.000000 0.000000 0.000000
						}
					}
				}
			}
		}
	}
	JOINT RHipJoint
	{
		OFFSET 0.000000 0.000000 0.000000
		CHANNELS 3 Zrotation Yrotation Xrotation
		JOINT RightUpLeg
		{
			OFFSET -1.305520 -1.794630 0.839290
			CHANNELS 3 Zrotation Yrotation Xrotation
			JOINT RightLeg
			{
				OFFSET -2.542530 -6.985550 0.000000
				CHANNELS 3 Zrotation Yrotation Xrotation
				JOINT RightFoot
				{
					OFFSET -2.568260 -7.056230 0.000000
					CHANNELS 3 Zrotation Yrotation Xrotation
					JOINT RightToeBase
					{
						OFFSET -0.164730 -0.452590 2.363150
						CHANNELS 3 Zrotation Yrotation Xrotation
						End Site
						{
							OFFSET 0.000000 0.000000 0.000000
						}
					}
				}
			}
		}
	}
	JOINT LowerBack
	{
		OFFSET 0.000000 0.000000 0.000000
		CHANNELS 3 Zrotation Yrotation Xrotation
		JOINT Spine
		{
			OFFSET 0.028270 2.035590 -0.193380
			CHANNELS 3 Zrotation Yrotation Xrotation
			JOINT Spine1
			{
				OFFSET 0.056720 2.048850 -0.042750
				CHANNELS 3 Zrotation Yrotation Xrotation
				JOINT Neck
				{
					OFFSET 0.000000 0.000000 0.000000
					CHANNELS 3 Zrotation Yrotation Xrotation
					JOINT Neck1
					{
						OFFSET -0.054170 1.746240 0.172020
						CHANNELS 3 Zrotation Yrotation Xrotation
						JOINT Head
						{
							OFFSET 0.104070 1.761360 -0.123970
							CHANNELS 3 Zrotation Yrotation Xrotation
							End Site
							{
								OFFSET 0.000000 0.000000 0.000000
							}
						}
					}
				}
				JOINT LeftShoulder
				{
					OFFSET 0.000000 0.000000 0.000000
					CHANNELS 3 Zrotation Yrotation Xrotation
					JOINT LeftArm
					{
						OFFSET 3.362410 1.200890 -0.311210
						CHANNELS 3 Zrotation Yrotation Xrotation
						JOINT LeftForeArm
						{
							OFFSET 4.983000 -0.000000 -0.000000
							CHANNELS 3 Zrotation Yrotation Xrotation
							JOINT LeftHand
							{
								OFFSET 3.483560 -0.000000 -0.000000
								CHANNELS 3 Zrotation Yrotation Xrotation
								JOINT LeftFingerBase
								{
									OFFSET 0.000000 0.000000 0.000000
									CHANNELS 3 Zrotation Yrotation Xrotation
									JOINT LeftHandIndex1
									{
										OFFSET 0.715260 -0.000000 -0.000000
										CHANNELS 3 Zrotation Yrotation Xrotation
										End Site
										{
											OFFSET 0.000000 0.000000 0.000000
										}
									}
								}
								JOINT LThumb
								{
									OFFSET 0.000000 0.000000 0.000000
									CHANNELS 3 Zrotation Yrotation Xrotation
									End Site
									{
										OFFSET 0.000000 0.000000 0.000000
									}
								}
							}
						}
					}
				}
				JOINT RightShoulder
				{
					OFFSET 0.000000 0.000000 0.000000
					CHANNELS 3 Zrotation Yrotation Xrotation
					JOINT RightArm
					{
						OFFSET -3.136600 1.374050 -0.404650
						CHANNELS 3 Zrotation Yrotation Xrotation
						JOINT RightForeArm
						{
							OFFSET -5.241900 -0.000000 -0.000000
							CHANNELS 3 Zrotation Yrotation Xrotation
							JOINT RightHand
							{
								OFFSET -3.444170 -0.000000 -0.000000
								CHANNELS 3 Zrotation Yrotation Xrotation
								JOINT RightFingerBase
								{
									OFFSET 0.000000 0.000000 0.000000
									CHANNELS 3 Zrotation Yrotation Xrotation
									JOINT RightHandIndex1
									{
										OFFSET -0.622530 -0.000000 -0.000000
										CHANNELS 3 Zrotation Yrotation Xrotation
										End Site
										{
											OFFSET 0.000000 0.000000 0.000000
										}
									}
								}
								JOINT RThumb
								{
									OFFSET 0.000000 0.000000 0.000000
									CHANNELS 3 Zrotation Yrotation Xrotation
									End Site
									{
										OFFSET 0.000000 0.000000 0.000000
									}
								}
							}
						}
					}
				}
			}
		}
	}
}
MOTION
Frames: 6
Frame Time: 0.033333
-0.218011 16.146373 -0.032160 -8.965369 1.340276 18.433020 -13.857782 31.118498 -18.383691 -19.480220 -32.025012 -50.499844 16.505204 5.275660 66.785450 -10.091290 7.994030 -11.052885 0.000000 0.000000 0.000000 1.058154 -37.903696 14.457931 25.761397 28.841396 -5.927942 9.805394 -11.320850 51.842952 27.080843 0.527733 -40.115945 0.000000 0.000000 0.000000 7.152818 0.059503 31.800450 2.681984 4.111382 -14.771499 -7.750939 4.609045 10.807846 6.648044 -1.343629 -0.907444 -2.642573 -0.152186 -3.666892 0.000000 0.000000 0.000000 7.806256 12.517874 11.377205 -66.101165 6.407875 -3.111919 -18.999629 -32.553888 -2.141426 -21.279115 -35.829329 -0.730559 -22.414433 -34.971805 -0.000000 0.000000 0.000000 0.000000 0.000000 0.000000 0.000000 -22.271251 -8.208025 -1.369778 92.169434 12.911480 18.927732 -144.784168 86.179246 176.563346 -8.943114 6.800383 -1.748730 -9.370966 6.829788 0.000000 0.000000 0.000000 0.000000 0.000000 0.000000 0.000000 
-0.234060 16.438867 0.336626 -9.046060 0.180489 19.297196 -13.950818 29.401289 -16.233845 -16.109075 -27.826896 -51.204969 15.701461 6.847445 62.095951 -6.696078 3.159579 -14.227211 0.000000 0.000000 0.000000 6.345439 -35.979660 16.614521 14.978000 30.556404 -14.242292 12.217008 -13.841217 49.794948 27.551543 -3.625132 -34.882165 0.000000 0.000000 0.000000 1.557893 -1.902282 27.834668 16.152398 4.510211 -11.812722 -15.914836 7.833557 13.131245 1.873502 -1.623206 -3.064826 -8.941177 -0.557302 -15.137313 0.000000 0.000000 0.000000 8.727184 8.467309 16.958331 -65.894302 8.568913 -10.050236 -23.309073 -35.774696 -1.890737 -27.824006 -39.617267 -0.213836 -30.011281 -37.792067 -0.000000 0.000000 0.000000 0.000000 0.000000 0.000000 0.000000 -24.923638 -5.291230 -5.078907 101.385910 15.513355 19.673110 -146.514653 89.860188 178.168709 -5.909022 9.342919 -0.934549 -6.181751 9.323251 0.000000 0.000000 0.000000 0.000000 0.000000 0.000000 0.000000 
-0.182601 16.634801 0.711131 -8.111008 -1.011100 14.736041 -13.549984 31.734520 -11.226872 -16.868451 -24.069707 -46.785112 15.672554 6.641884 55.310202 -2.911452 -3.908741 -20.232294 0.000000 0.000000 0.000000 10.433777 -33.784444 20.253632 1.746423 30.353716 -20.778895 16.683212 -17.719452 50.851415 32.842305 -10.283404 -31.078981 0.000000 0.000000 0.000000 -2.323709 -6.680459 12.849843 23.691159 -4.313770 27.855103 -28.765657 7.708660 -5.220564 -5.901966 -0.714913 -8.653481 -4.096652 0.905494 -16.437931 0.000000 0.000000 0.000000 12.579760 9.297770 5.432204 -48.105830 -2.349869 -12.864404 -61.655616 11.355600 -2.900335 -38.548102 -43.457810 -0.053882 -42.022407 -39.691116 0.000000 0.000000 0.000000 0.000000 0.000000 0.000000 0.000000 -34.243166 -7.208997 -12.402540 100.704375 13.823243 31.343329 -128.786204 87.775077 179.953391 1.507987 18.367046 -0.057853 1.299749 18.396603 0.000000 0.000000 0.000000 0.000000 0.000000 0.000000 0.000000 
-0.050907 16.619819 0.834451 -7.862989 1.012602 15.949903 -15.458097 32.645099 -11.491493 -18.604952 -26.016835 -46.931588 17.166727 4.334311 55.125605 -2.454656 -5.263401 -20.458611 0.000000 0.000000 0.000000 10.946300 -36.083180 19.678443 1.486262 30.844430 -23.321478 15.945054 -17.249935 53.653301 35.558171 -12.231630 -29.887741 0.000000 0.000000 0.000000 -0.997270 -3.631813 17.761507 20.630301 -2.329388 21.211617 -22.172689 5.749819 -6.503803 -5.309928 -2.326101 -12.926490 -0.659475 0.406758 -5.993349 0.000000 0.000000 0.000000 17.433952 12.195629 2.525058 -59.065641 -9.212279 -11.415541 -50.943406 35.209339 -1.774860 -40.559841 -53.331056 2.120035 -47.873922 -46.480048 -0.000000 0.000000 0.000000 0.000000 0.000000 0.000000 0.000000 -33.684378 -8.769189 -6.407462 87.433611 22.129899 13.382744 96.399356 53.917933 0.402535 6.442575 20.626314 0.173975 6.381324 20.651906 0.000000 0.000000 0.000000 0.000000 0.000000 0.000000 0.000000 
0.079665 16.536059 0.900513 -7.218804 3.386695 18.294120 -18.807567 32.623069 -12.695539 -19.951613 -28.995926 -48.498596 19.544277 1.357049 56.838769 -2.475624 -5.735300 -19.351994 0.000000 0.000000 0.000000 10.643491 -37.996168 18.183507 1.724881 31.711891 -24.270041 18.784804 -16.967667 53.389147 38.818475 -12.430260 -32.318946 0.000000 0.000000 0.000000 3.281017 -0.770912 26.577244 6.787566 1.477501 -4.713650 -10.478558 6.623455 10.525369 1.866279 -1.349417 -13.306995 0.877075 0.439511 -4.410242 0.000000 0.000000 0.000000 18.863594 5.127053 8.533212 -101.358824 -10.250639 -1.441986 79.737592 19.673306 -0.645766 -17.555451 -65.134916 2.339060 -24.035831 -62.444212 0.000000 0.000000 0.000000 0.000000 0.000000 0.000000 0.000000 -30.025696 -5.880024 -2.060685 79.933740 24.689804 3.278360 97.076823 46.135769 1.383044 7.047050 18.804619 0.693100 7.204252 18.794966 0.000000 0.000000 0.000000 0.000000 0.000000 0.000000 0.000000 
0.065462 16.582553 1.015969 -6.708292 4.834952 18.677437 -19.542834 32.693130 -13.044414 -22.744033 -30.897470 -46.723029 23.260194 -1.663445 56.715761 -2.360569 -5.543394 -15.988829 0.000000 0.000000 0.000000 11.932515 -35.587308 17.588276 -1.136905 30.600267 -24.128167 23.572187 -18.654981 49.068956 41.962929 -14.305053 -34.062640 0.000000 0.000000 0.000000 3.521993 -2.258106 26.761592 6.897169 0.101531 -5.940499 -9.502309 4.968858 13.158447 -0.297248 -1.764998 -15.184745 2.343192 0.688753 -4.734229 0.000000 0.000000 0.000000 22.357362 7.330712 6.486141 -100.519407 -7.882705 0.416842 51.392257 21.340427 -1.540637 -7.778531 -54.715797 -0.232158 -9.331229 -54.412021 0.000000 0.000000 0.000000 0.000000 0.000000 0.000000 0.000000 -31.183825 -1.356609 1.356381 84.020538 19.385009 6.774707 97.284385 58.930872 2.988263 9.589943 15.135830 1.529725 10.044190 15.073740 0.000000 0.000000 0.000000 0.000000 0.000000 0.000000 0.000000 
